<svg xmlns="http://www.w3.org/2000/svg" class="graphdiagram" viewBox="-170.40547621019496 -817.9236834281775 1536 706"><g class="layer relationships"><g class="related-pair"><g class="relationship" transform="translate(669.9999694824219,-678) rotate(161.90109169222754)"><path class="relationship" d="M 22.821086745372973,-15.112786945290694 L 23.863700421944692,-13.406048323994042 A 367.2830176262908 367.2830176262908 0 0 1 403.09214128170953,-15.640014855392636 L 401.55849052868757,-13.061659688284124 L 410.4789719783396,-12.409731236370229 L 405.6482258700795,-19.937273467240153 L 404.11457511705754,-17.35891830013164 A 369.2830176262908 369.2830176262908 0 0 0 22.821086745372973,-15.112786945290694" fill="rgba(0, 0, 0, 0.3)" stroke="rgb(51, 51, 51)" stroke-width="0px"/><text class="type" text-anchor="middle" baseline-shift="30%" alignment-baseline="alphabetic" transform="rotate(180)" x="-215.33084909679636" y="68.26101038569999" font-size="14px" font-family="&quot;Helvetica Neue&quot;, Helvetica, Arial, sans-serif">RESERVATION_ON</text></g><g class="relationship" transform="translate(669.9999694824219,-678) rotate(161.90109169222754)"><path class="relationship" d="M 26.715722994836224,-5.955541483086639 L 27.079278207845828,-3.988862147990666 A 1035.614752051291 1035.614752051291 0 0 1 399.4033471428491,-4.752533434803237 L 398.87012038739357,-1.8003022061786225 L 407.4537060043332,-4.314672496463439 L 400.2920584019416,-9.67291881584426 L 399.75883164648604,-6.720687587219647 A 1037.614752051291 1037.614752051291 0 0 0 26.715722994836224,-5.955541483086639" fill="rgba(0, 0, 0, 0.3)" stroke="rgb(51, 51, 51)" stroke-width="0px"/><text class="type" text-anchor="middle" baseline-shift="30%" alignment-baseline="alphabetic" transform="rotate(180)" x="-215.33084909679465" y="22.24254820937449" font-size="14px" font-family="&quot;Helvetica Neue&quot;, Helvetica, Arial, sans-serif">DRIVE_WITH</text></g><g class="relationship" transform="translate(669.9999694824219,-678) rotate(161.90109169222754)"><path class="relationship" d="M 26.715722994836224,5.955541483086639 L 27.079278207845828,3.988862147990666 A 1035.614752051291 1035.614752051291 0 0 0 399.4033471428491,4.752533434803237 L 398.87012038739357,1.8003022061786225 L 407.4537060043332,4.314672496463439 L 400.2920584019416,9.67291881584426 L 399.75883164648604,6.720687587219647 A 1037.614752051291 1037.614752051291 0 0 1 26.715722994836224,5.955541483086639" fill="rgba(0, 0, 0, 0.3)" stroke="rgb(51, 51, 51)" stroke-width="0px"/><text class="type" text-anchor="middle" baseline-shift="30%" alignment-baseline="alphabetic" transform="rotate(180)" x="-215.33084909679465" y="-22.24254820937449" font-size="14px" font-family="&quot;Helvetica Neue&quot;, Helvetica, Arial, sans-serif">PICKUP</text></g><g class="relationship" transform="translate(669.9999694824219,-678) rotate(161.90109169222754)"><path class="relationship" d="M 22.821086745372973,15.112786945290694 L 23.863700421944692,13.406048323994042 A 367.2830176262908 367.2830176262908 0 0 0 403.09214128170953,15.640014855392636 L 401.55849052868757,13.061659688284124 L 410.4789719783396,12.409731236370229 L 405.6482258700795,19.937273467240153 L 404.11457511705754,17.35891830013164 A 369.2830176262908 369.2830176262908 0 0 1 22.821086745372973,15.112786945290694" fill="rgba(0, 0, 0, 0.3)" stroke="rgb(51, 51, 51)" stroke-width="0px"/><text class="type" text-anchor="middle" baseline-shift="30%" alignment-baseline="alphabetic" transform="rotate(180)" x="-215.33084909679636" y="-68.26101038569999" font-size="14px" font-family="&quot;Helvetica Neue&quot;, Helvetica, Arial, sans-serif">LEAVE</text></g></g><g class="related-pair"><g class="relationship" transform="translate(260,-544) rotate(27.03333459509094)"><path class="relationship" d="M 23.557245283892875,-5.943582644073753 L 23.966287032303548,-3.9858582385311494 A 889.629375955094 889.629375955094 0 0 1 379.96745186988574,-5.598015996991948 L 379.38051063844887,-2.6559928851113876 L 388.00849391204616,-5.013513750453821 L 380.94568725561385,-10.501387850126214 L 380.358746024177,-7.559364738245654 A 891.629375955094 891.629375955094 0 0 0 23.557245283892875,-5.943582644073753" fill="rgba(0, 0, 0, 0.3)" stroke="rgb(51, 51, 51)" stroke-width="0px"/><text class="type" text-anchor="middle" baseline-shift="30%" alignment-baseline="alphabetic" x="205.91406472138735" y="-23.790663596163313" font-size="14px" font-family="&quot;Helvetica Neue&quot;, Helvetica, Arial, sans-serif">PARKED_AT</text></g><g class="relationship" transform="translate(260,-544) rotate(27.03333459509094)"><path class="relationship" d="M 23.557245283892875,5.943582644073753 L 23.966287032303548,3.9858582385311494 A 889.629375955094 889.629375955094 0 0 0 379.96745186988574,5.598015996991948 L 379.38051063844887,2.6559928851113876 L 388.00849391204616,5.013513750453821 L 380.94568725561385,10.501387850126214 L 380.358746024177,7.559364738245654 A 891.629375955094 891.629375955094 0 0 1 23.557245283892875,5.943582644073753" fill="rgba(0, 0, 0, 0.3)" stroke="rgb(51, 51, 51)" stroke-width="0px"/><text class="type" text-anchor="middle" baseline-shift="30%" alignment-baseline="alphabetic" x="205.91406472138735" y="23.790663596163313" font-size="14px" font-family="&quot;Helvetica Neue&quot;, Helvetica, Arial, sans-serif">CHARGING_AT</text></g></g><g class="related-pair"><g class="relationship" transform="translate(927.0000610351562,-544) rotate(-152.46243705624315)"><path class="relationship" d="M 39.49713443270304 1 L 254.4830275511738 1 L 254.4830275511738 4 L 262.4830275511738 0 L 254.4830275511738 -4 L 254.4830275511738 -1 L 39.49713443270304 -1 Z" fill="rgba(0, 0, 0, 0.3)" stroke="rgb(51, 51, 51)" stroke-width="0px"/><text class="type" text-anchor="middle" baseline-shift="30%" alignment-baseline="alphabetic" transform="rotate(180)" x="-146.9900809919384" y="0" font-size="14px" font-family="&quot;Helvetica Neue&quot;, Helvetica, Arial, sans-serif">ASSISTING</text></g></g><g class="related-pair"><g class="relationship" transform="translate(927.0000610351562,-544) rotate(180)"><path class="relationship" d="M 39.49713443270304 1 L 634.7251773070634 1 L 634.7251773070634 4 L 642.7251773070634 0 L 634.7251773070634 -4 L 634.7251773070634 -1 L 39.49713443270304 -1 Z" fill="rgba(0, 0, 0, 0.3)" stroke="rgb(51, 51, 51)" stroke-width="0px"/><text class="type" text-anchor="middle" baseline-shift="30%" alignment-baseline="alphabetic" transform="rotate(180)" x="-337.1111558698832" y="0" font-size="14px" font-family="&quot;Helvetica Neue&quot;, Helvetica, Arial, sans-serif">CLEANING</text></g></g><g class="related-pair"><g class="relationship" transform="translate(669.9999694824219,-678) rotate(97.43654356342368)"><path class="relationship" d="M 27.35321424428191 1 L 290.8792909583119 1 L 290.8792909583119 4 L 298.8792909583119 0 L 290.8792909583119 -4 L 290.8792909583119 -1 L 27.35321424428191 -1 Z" fill="rgba(0, 0, 0, 0.3)" stroke="rgb(51, 51, 51)" stroke-width="0px"/><text class="type" text-anchor="middle" baseline-shift="30%" alignment-baseline="alphabetic" x="-159.1162526012969" y="0" font-size="14px" font-family="&quot;Helvetica Neue&quot;, Helvetica, Arial, sans-serif" transform="rotate(180)">CREATE</text></g></g></g><g class="layer nodes"><circle class="node node-id-0" r="21.85321424428191" fill="rgb(247, 247, 249)" stroke="rgba(0, 0, 0, 0.3)" stroke-width="1px" cx="669.9999694824219" cy="-678"/><circle class="node node-id-1" r="18.774883728092867" fill="rgb(247, 247, 249)" stroke="rgba(0, 0, 0, 0.3)" stroke-width="1px" cx="260" cy="-544"/><circle class="node node-id-3" r="20.125293378251172" fill="rgb(247, 247, 249)" stroke="rgba(0, 0, 0, 0.3)" stroke-width="1px" cx="627.9999694824219" cy="-356.2248840332031"/><circle class="node node-id-4" r="33.99713443270304" fill="rgb(247, 247, 249)" stroke="rgba(0, 0, 0, 0.3)" stroke-width="1px" cx="927.0000610351562" cy="-544"/><g class="caption"><text class="caption node" text-anchor="middle" alignment-baseline="central" x="669.9999694824219" y="-678" fill="rgb(51, 51, 51)" font-size="14px" font-family="&quot;Helvetica Neue&quot;, Helvetica, Arial, sans-serif">User</text></g><g class="caption"><text class="caption node" text-anchor="middle" alignment-baseline="central" x="260" y="-544" fill="rgb(51, 51, 51)" font-size="14px" font-family="&quot;Helvetica Neue&quot;, Helvetica, Arial, sans-serif">Car</text></g><g class="caption"><text class="caption node" text-anchor="middle" alignment-baseline="central" x="627.9999694824219" y="-356.2248840332031" fill="rgb(51, 51, 51)" font-size="14px" font-family="&quot;Helvetica Neue&quot;, Helvetica, Arial, sans-serif">Hub</text></g><g class="caption"><text class="caption node" text-anchor="middle" alignment-baseline="central" x="927.0000610351562" y="-544" fill="rgb(51, 51, 51)" font-size="14px" font-family="&quot;Helvetica Neue&quot;, Helvetica, Arial, sans-serif">Operator</text></g></g><g class="layer properties"><g class="speech-bubble node-speech-bubble" transform="translate(669.9999694824219,-699.853214244282) "><path class="speech-bubble-outline" transform="scale(1,-1) " d="M 0 0 L -4 12 L -41.26513671875 12 A 4 4 0 0 0 -45.26513671875 16 L -45.26513671875 30 A 4 4 0 0 0 -41.26513671875 34 L 41.26513671875 34 A 4 4 0 0 0 45.26513671875 30 L 45.26513671875 16 A 4 4 0 0 0 41.26513671875 12 L 4 12 Z" fill="rgb(255, 255, 255)" stroke="rgba(0, 0, 0, 0.5)" stroke-width="1px"/><text class="speech-bubble-content property-key" x="-22.58935546875" y="-23" alignment-baseline="central" text-anchor="end" font-size="14px" font-family="&quot;Helvetica Neue&quot;, Helvetica, Arial, sans-serif" xml:space="preserve">id: </text><text class="speech-bubble-content property-value" x="-22.58935546875" y="-23" alignment-baseline="central" font-size="14px" font-family="&quot;Helvetica Neue&quot;, Helvetica, Arial, sans-serif">{5123462}</text></g><g class="speech-bubble node-speech-bubble" transform="translate(241.22511627190713,-544) "><path class="speech-bubble-outline" transform="scale(-1,1) " d="M 0 0 L 12 -4 L 12 -35 A 4 4 0 0 1 16 -39 L 181.033203125 -39 A 4 4 0 0 1 185.033203125 -35 L 185.033203125 35 A 4 4 0 0 1 181.033203125 39 L 16 39 A 4 4 0 0 1 12 35 L 12 4 Z" fill="rgb(255, 255, 255)" stroke="rgba(0, 0, 0, 0.5)" stroke-width="1px"/><text class="speech-bubble-content property-key" x="-91.5302734375" y="-28" alignment-baseline="central" text-anchor="end" font-size="14px" font-family="&quot;Helvetica Neue&quot;, Helvetica, Arial, sans-serif" xml:space="preserve">license_plate: </text><text class="speech-bubble-content property-key" x="-91.5302734375" y="-14" alignment-baseline="central" text-anchor="end" font-size="14px" font-family="&quot;Helvetica Neue&quot;, Helvetica, Arial, sans-serif" xml:space="preserve">brand: </text><text class="speech-bubble-content property-key" x="-91.5302734375" y="0" alignment-baseline="central" text-anchor="end" font-size="14px" font-family="&quot;Helvetica Neue&quot;, Helvetica, Arial, sans-serif" xml:space="preserve">model: </text><text class="speech-bubble-content property-key" x="-91.5302734375" y="14" alignment-baseline="central" text-anchor="end" font-size="14px" font-family="&quot;Helvetica Neue&quot;, Helvetica, Arial, sans-serif" xml:space="preserve">lon: </text><text class="speech-bubble-content property-key" x="-91.5302734375" y="28" alignment-baseline="central" text-anchor="end" font-size="14px" font-family="&quot;Helvetica Neue&quot;, Helvetica, Arial, sans-serif" xml:space="preserve">lat: </text><text class="speech-bubble-content property-value" x="-91.5302734375" y="-28" alignment-baseline="central" font-size="14px" font-family="&quot;Helvetica Neue&quot;, Helvetica, Arial, sans-serif">{1-RVI-456}</text><text class="speech-bubble-content property-value" x="-91.5302734375" y="-14" alignment-baseline="central" font-size="14px" font-family="&quot;Helvetica Neue&quot;, Helvetica, Arial, sans-serif">{BMW}</text><text class="speech-bubble-content property-value" x="-91.5302734375" y="0" alignment-baseline="central" font-size="14px" font-family="&quot;Helvetica Neue&quot;, Helvetica, Arial, sans-serif">{i3}</text><text class="speech-bubble-content property-value" x="-91.5302734375" y="14" alignment-baseline="central" font-size="14px" font-family="&quot;Helvetica Neue&quot;, Helvetica, Arial, sans-serif">{51.441413}</text><text class="speech-bubble-content property-value" x="-91.5302734375" y="28" alignment-baseline="central" font-size="14px" font-family="&quot;Helvetica Neue&quot;, Helvetica, Arial, sans-serif">{5.451157}</text></g><g class="speech-bubble node-speech-bubble" transform="translate(642.230700903552,-341.994152612073) "><path class="speech-bubble-outline" transform="scale(1,1) " d="M 0 0 L 16 12 L 225.603515625 12 A 4 4 0 0 1 229.603515625 16 L 229.603515625 142 A 4 4 0 0 1 225.603515625 146 L 16 146 A 4 4 0 0 1 12 142 L 12 16 Z" fill="rgb(255, 255, 255)" stroke="rgba(0, 0, 0, 0.5)" stroke-width="1px"/><text class="speech-bubble-content property-key" x="91.482421875" y="23" alignment-baseline="central" text-anchor="end" font-size="14px" font-family="&quot;Helvetica Neue&quot;, Helvetica, Arial, sans-serif" xml:space="preserve">name: </text><text class="speech-bubble-content property-key" x="91.482421875" y="37" alignment-baseline="central" text-anchor="end" font-size="14px" font-family="&quot;Helvetica Neue&quot;, Helvetica, Arial, sans-serif" xml:space="preserve">public: </text><text class="speech-bubble-content property-key" x="91.482421875" y="51" alignment-baseline="central" text-anchor="end" font-size="14px" font-family="&quot;Helvetica Neue&quot;, Helvetica, Arial, sans-serif" xml:space="preserve">chargers: </text><text class="speech-bubble-content property-key" x="91.482421875" y="65" alignment-baseline="central" text-anchor="end" font-size="14px" font-family="&quot;Helvetica Neue&quot;, Helvetica, Arial, sans-serif" xml:space="preserve">lon: </text><text class="speech-bubble-content property-key" x="91.482421875" y="79" alignment-baseline="central" text-anchor="end" font-size="14px" font-family="&quot;Helvetica Neue&quot;, Helvetica, Arial, sans-serif" xml:space="preserve">lat: </text><text class="speech-bubble-content property-key" x="91.482421875" y="93" alignment-baseline="central" text-anchor="end" font-size="14px" font-family="&quot;Helvetica Neue&quot;, Helvetica, Arial, sans-serif" xml:space="preserve">street: </text><text class="speech-bubble-content property-key" x="91.482421875" y="107" alignment-baseline="central" text-anchor="end" font-size="14px" font-family="&quot;Helvetica Neue&quot;, Helvetica, Arial, sans-serif" xml:space="preserve">city: </text><text class="speech-bubble-content property-key" x="91.482421875" y="121" alignment-baseline="central" text-anchor="end" font-size="14px" font-family="&quot;Helvetica Neue&quot;, Helvetica, Arial, sans-serif" xml:space="preserve">description: </text><text class="speech-bubble-content property-key" x="91.482421875" y="135" alignment-baseline="central" text-anchor="end" font-size="14px" font-family="&quot;Helvetica Neue&quot;, Helvetica, Arial, sans-serif" xml:space="preserve">openhours: </text><text class="speech-bubble-content property-value" x="91.482421875" y="23" alignment-baseline="central" font-size="14px" font-family="&quot;Helvetica Neue&quot;, Helvetica, Arial, sans-serif">{The Wall Eindhoven}</text><text class="speech-bubble-content property-value" x="91.482421875" y="37" alignment-baseline="central" font-size="14px" font-family="&quot;Helvetica Neue&quot;, Helvetica, Arial, sans-serif">{True}</text><text class="speech-bubble-content property-value" x="91.482421875" y="51" alignment-baseline="central" font-size="14px" font-family="&quot;Helvetica Neue&quot;, Helvetica, Arial, sans-serif">{4}</text><text class="speech-bubble-content property-value" x="91.482421875" y="65" alignment-baseline="central" font-size="14px" font-family="&quot;Helvetica Neue&quot;, Helvetica, Arial, sans-serif">{51.441413}</text><text class="speech-bubble-content property-value" x="91.482421875" y="79" alignment-baseline="central" font-size="14px" font-family="&quot;Helvetica Neue&quot;, Helvetica, Arial, sans-serif">{5.451157}</text><text class="speech-bubble-content property-value" x="91.482421875" y="93" alignment-baseline="central" font-size="14px" font-family="&quot;Helvetica Neue&quot;, Helvetica, Arial, sans-serif">{Rietputten}</text><text class="speech-bubble-content property-value" x="91.482421875" y="107" alignment-baseline="central" font-size="14px" font-family="&quot;Helvetica Neue&quot;, Helvetica, Arial, sans-serif">{Eindhoven}</text><text class="speech-bubble-content property-value" x="91.482421875" y="121" alignment-baseline="central" font-size="14px" font-family="&quot;Helvetica Neue&quot;, Helvetica, Arial, sans-serif">{Upon arrival...}</text><text class="speech-bubble-content property-value" x="91.482421875" y="135" alignment-baseline="central" font-size="14px" font-family="&quot;Helvetica Neue&quot;, Helvetica, Arial, sans-serif">{9-18}</text></g><g class="speech-bubble relationship-speech-bubble" transform="translate(486.52918602116176,-546.2221121442018) "><path class="speech-bubble-outline" transform="scale(1,1) " d="M 0 0 L 16 12 L 139.4912109375 12 A 4 4 0 0 1 143.4912109375 16 L 143.4912109375 44 A 4 4 0 0 1 139.4912109375 48 L 16 48 A 4 4 0 0 1 12 44 L 12 16 Z" fill="rgb(255, 255, 255)" stroke="rgba(0, 0, 0, 0.5)" stroke-width="1px"/><text class="speech-bubble-content property-key" x="51.02734375" y="23" alignment-baseline="central" text-anchor="end" font-size="14px" font-family="&quot;Helvetica Neue&quot;, Helvetica, Arial, sans-serif" xml:space="preserve">date: </text><text class="speech-bubble-content property-key" x="51.02734375" y="37" alignment-baseline="central" text-anchor="end" font-size="14px" font-family="&quot;Helvetica Neue&quot;, Helvetica, Arial, sans-serif" xml:space="preserve">time: </text><text class="speech-bubble-content property-value" x="51.02734375" y="23" alignment-baseline="central" font-size="14px" font-family="&quot;Helvetica Neue&quot;, Helvetica, Arial, sans-serif">{11-mar-2019}</text><text class="speech-bubble-content property-value" x="51.02734375" y="37" alignment-baseline="central" font-size="14px" font-family="&quot;Helvetica Neue&quot;, Helvetica, Arial, sans-serif">{9u00}</text></g></g><g class="layer overlay"><circle class="node overlay" r="22.35321424428191" stroke="none" fill="rgba(255, 255, 255, 0)" cx="669.9999694824219" cy="-678"/><circle class="node overlay" r="19.274883728092867" stroke="none" fill="rgba(255, 255, 255, 0)" cx="260" cy="-544"/><circle class="node overlay" r="20.625293378251172" stroke="none" fill="rgba(255, 255, 255, 0)" cx="627.9999694824219" cy="-356.2248840332031"/><circle class="node overlay" r="34.49713443270304" stroke="none" fill="rgba(255, 255, 255, 0)" cx="927.0000610351562" cy="-544"/><circle class="node ring" r="27.35321424428191" fill="none" stroke="rgba(255, 255, 255, 0)" stroke-width="10px" cx="669.9999694824219" cy="-678"/><circle class="node ring" r="24.274883728092867" fill="none" stroke="rgba(255, 255, 255, 0)" stroke-width="10px" cx="260" cy="-544"/><circle class="node ring" r="25.625293378251172" fill="none" stroke="rgba(255, 255, 255, 0)" stroke-width="10px" cx="627.9999694824219" cy="-356.2248840332031"/><circle class="node ring" r="39.49713443270304" fill="none" stroke="rgba(255, 255, 255, 0)" stroke-width="10px" cx="927.0000610351562" cy="-544"/><path class="relationship overlay" fill="rgba(255, 255, 255, 0)" stroke="rgba(255, 255, 255, 0)" stroke-width="10px" transform="translate(669.9999694824219,-678) rotate(161.90109169222754)" d="M 22.821086745372973,-15.112786945290694 L 23.863700421944692,-13.406048323994042 A 367.2830176262908 367.2830176262908 0 0 1 403.09214128170953,-15.640014855392636 L 401.55849052868757,-13.061659688284124 L 410.4789719783396,-12.409731236370229 L 405.6482258700795,-19.937273467240153 L 404.11457511705754,-17.35891830013164 A 369.2830176262908 369.2830176262908 0 0 0 22.821086745372973,-15.112786945290694"/><path class="relationship overlay" fill="rgba(255, 255, 255, 0)" stroke="rgba(255, 255, 255, 0)" stroke-width="10px" transform="translate(669.9999694824219,-678) rotate(161.90109169222754)" d="M 26.715722994836224,-5.955541483086639 L 27.079278207845828,-3.988862147990666 A 1035.614752051291 1035.614752051291 0 0 1 399.4033471428491,-4.752533434803237 L 398.87012038739357,-1.8003022061786225 L 407.4537060043332,-4.314672496463439 L 400.2920584019416,-9.67291881584426 L 399.75883164648604,-6.720687587219647 A 1037.614752051291 1037.614752051291 0 0 0 26.715722994836224,-5.955541483086639"/><path class="relationship overlay" fill="rgba(255, 255, 255, 0)" stroke="rgba(255, 255, 255, 0)" stroke-width="10px" transform="translate(669.9999694824219,-678) rotate(161.90109169222754)" d="M 26.715722994836224,5.955541483086639 L 27.079278207845828,3.988862147990666 A 1035.614752051291 1035.614752051291 0 0 0 399.4033471428491,4.752533434803237 L 398.87012038739357,1.8003022061786225 L 407.4537060043332,4.314672496463439 L 400.2920584019416,9.67291881584426 L 399.75883164648604,6.720687587219647 A 1037.614752051291 1037.614752051291 0 0 1 26.715722994836224,5.955541483086639"/><path class="relationship overlay" fill="rgba(255, 255, 255, 0)" stroke="rgba(255, 255, 255, 0)" stroke-width="10px" transform="translate(669.9999694824219,-678) rotate(161.90109169222754)" d="M 22.821086745372973,15.112786945290694 L 23.863700421944692,13.406048323994042 A 367.2830176262908 367.2830176262908 0 0 0 403.09214128170953,15.640014855392636 L 401.55849052868757,13.061659688284124 L 410.4789719783396,12.409731236370229 L 405.6482258700795,19.937273467240153 L 404.11457511705754,17.35891830013164 A 369.2830176262908 369.2830176262908 0 0 1 22.821086745372973,15.112786945290694"/><path class="relationship overlay" fill="rgba(255, 255, 255, 0)" stroke="rgba(255, 255, 255, 0)" stroke-width="10px" transform="translate(260,-544) rotate(27.03333459509094)" d="M 23.557245283892875,-5.943582644073753 L 23.966287032303548,-3.9858582385311494 A 889.629375955094 889.629375955094 0 0 1 379.96745186988574,-5.598015996991948 L 379.38051063844887,-2.6559928851113876 L 388.00849391204616,-5.013513750453821 L 380.94568725561385,-10.501387850126214 L 380.358746024177,-7.559364738245654 A 891.629375955094 891.629375955094 0 0 0 23.557245283892875,-5.943582644073753"/><path class="relationship overlay" fill="rgba(255, 255, 255, 0)" stroke="rgba(255, 255, 255, 0)" stroke-width="10px" transform="translate(260,-544) rotate(27.03333459509094)" d="M 23.557245283892875,5.943582644073753 L 23.966287032303548,3.9858582385311494 A 889.629375955094 889.629375955094 0 0 0 379.96745186988574,5.598015996991948 L 379.38051063844887,2.6559928851113876 L 388.00849391204616,5.013513750453821 L 380.94568725561385,10.501387850126214 L 380.358746024177,7.559364738245654 A 891.629375955094 891.629375955094 0 0 1 23.557245283892875,5.943582644073753"/><path class="relationship overlay" fill="rgba(255, 255, 255, 0)" stroke="rgba(255, 255, 255, 0)" stroke-width="10px" transform="translate(927.0000610351562,-544) rotate(-152.46243705624315)" d="M 39.49713443270304 1 L 254.4830275511738 1 L 254.4830275511738 4 L 262.4830275511738 0 L 254.4830275511738 -4 L 254.4830275511738 -1 L 39.49713443270304 -1 Z"/><path class="relationship overlay" fill="rgba(255, 255, 255, 0)" stroke="rgba(255, 255, 255, 0)" stroke-width="10px" transform="translate(927.0000610351562,-544) rotate(180)" d="M 39.49713443270304 1 L 634.7251773070634 1 L 634.7251773070634 4 L 642.7251773070634 0 L 634.7251773070634 -4 L 634.7251773070634 -1 L 39.49713443270304 -1 Z"/><path class="relationship overlay" fill="rgba(255, 255, 255, 0)" stroke="rgba(255, 255, 255, 0)" stroke-width="10px" transform="translate(669.9999694824219,-678) rotate(97.43654356342368)" d="M 27.35321424428191 1 L 290.8792909583119 1 L 290.8792909583119 4 L 298.8792909583119 0 L 290.8792909583119 -4 L 290.8792909583119 -1 L 27.35321424428191 -1 Z"/></g></svg>